<mxfile host="app.diagrams.net" modified="2024-05-17T06:06:12.054Z" agent="Mozilla/5.0 (Windows NT 10.0; Win64; x64) AppleWebKit/537.36 (KHTML, like Gecko) Chrome/124.0.0.0 Safari/537.36" version="24.4.0" etag="2IwVUtQ4odsUWCuJOGjs" type="github">
  <diagram name="Page-1" id="1ZYs2tdE7VTASou5oJv-">
    <mxGraphModel>
      <root>
        <mxCell id="0" />
        <mxCell id="1" parent="0" />
      </root>
    </mxGraphModel>
  </diagram>
</mxfile>
